<?xml version="1.0" encoding="UTF-8"?>
<svg xmlns="http://www.w3.org/2000/svg" version="1.1" xmlns:xlink="http://www.w3.org/1999/xlink" viewBox="0 0 188.7 189.4">
  <defs>
    <style>
      .cls-1 {
        fill: url(#linear-gradient-2);
      }

      .cls-2 {
        fill: #003b71;
      }

      .cls-3 {
        fill: none;
      }

      .cls-4 {
        fill: url(#linear-gradient-4);
      }

      .cls-5 {
        fill: url(#linear-gradient-3);
      }

      .cls-6 {
        fill: url(#linear-gradient-5);
      }

      .cls-7 {
        fill: #76777a;
      }

      .cls-8 {
        fill: url(#linear-gradient);
      }
    </style>
    <linearGradient id="linear-gradient" x1="102.4" y1="95" x2="63.8" y2="73.2" gradientTransform="translate(2.4 .1) rotate(0)" gradientUnits="userSpaceOnUse">
      <stop offset="0" stop-color="#fff"/>
      <stop offset=".2" stop-color="#e7eb8e"/>
      <stop offset=".8" stop-color="#aacc03"/>
      <stop offset="1" stop-color="#8dc21f"/>
    </linearGradient>
    <linearGradient id="linear-gradient-2" x1="99.2" y1="80.7" x2="63.2" y2="56.6" gradientTransform="translate(2.4 .1) rotate(0)" gradientUnits="userSpaceOnUse">
      <stop offset="0" stop-color="#e5ea90"/>
      <stop offset="0" stop-color="#e1e889"/>
      <stop offset="0" stop-color="#d2e06e"/>
      <stop offset=".2" stop-color="#cadb5d"/>
      <stop offset=".2" stop-color="#c7da58"/>
      <stop offset=".4" stop-color="#a1c710"/>
      <stop offset=".7" stop-color="#7cb923"/>
      <stop offset="1" stop-color="#65b12f"/>
    </linearGradient>
    <linearGradient id="linear-gradient-3" x1="104.1" y1="73.3" x2="68.1" y2="49.2" xlink:href="#linear-gradient-2"/>
    <linearGradient id="linear-gradient-4" x1="86.3" y1="99.9" x2="50.3" y2="75.8" xlink:href="#linear-gradient-2"/>
    <linearGradient id="linear-gradient-5" x1="81.9" y1="106.5" x2="45.9" y2="82.4" xlink:href="#linear-gradient-2"/>
  </defs>
  <!-- Generator: Adobe Illustrator 28.7.0, SVG Export Plug-In . SVG Version: 1.2.0 Build 136)  -->
  <g>
    <g id="_레이어_1" data-name="레이어_1">
      <g>
        <path class="cls-3" d="M178.6,94.2c0,46.6-37.6,84.4-84.2,84.4-46.6,0-84.4-37.6-84.4-84.2,0-46.6,37.6-84.4,84.2-84.4,46.6,0,84.4,37.6,84.4,84.2Z"/>
        <path class="cls-3" d="M159.9,94.2c0,36.3-29.3,65.7-65.6,65.7-36.3,0-65.7-29.3-65.7-65.6,0-36.3,29.3-65.7,65.6-65.7,36.3,0,65.7,29.3,65.7,65.6Z"/>
        <path class="cls-3" d="M147.8,93.3c0,29.4-23.8,53.3-53.2,53.4-29.4,0-53.3-23.8-53.4-53.2,0-29.4,23.8-53.3,53.2-53.4,29.4,0,53.3,23.8,53.4,53.2Z"/>
        <g>
          <g>
            <path class="cls-7" d="M148.1,143s-1.4,1.4-1.5,1.6c.2.2,3.3,3.1,3.3,3.1l-1.7,1.8s-3.1-2.9-3.3-3.1c-.2.2-1.5,1.5-1.6,1.7.2.2,3.3,3.1,3.3,3.1,0,0-2.1,2.2-2.3,2.4.2.2,1.4,1.3,1.5,1.4.2-.2,11.1-11.6,11.3-11.8-.2-.2-1.4-1.3-1.5-1.4-.2.2-4,4.2-4,4.2,0,0-3.1-2.9-3.3-3.1,0,0-.1.1-.1.1Z"/>
            <path class="cls-7" d="M152.7,141.2c-.2-.2-6.5-6.2-6.7-6.4,0,0-.1.1-.1.1,0,0-9.5,9.9-9.7,10.1.2.2,1.4,1.3,1.5,1.4.2-.2,8.1-8.5,8.1-8.5,0,0,5,4.8,5.2,4.9l1.6-1.7Z"/>
          </g>
          <path class="cls-7" d="M36.7,146.2c-1.7,1.6-1.6,4.3.1,6.2,1.7,1.8,4.5,2.1,6.1.5,1.7-1.6,1.6-4.3-.1-6.2-1.7-1.8-4.5-2.1-6.1-.5ZM38.3,147.8c.9-.8,2.3-.7,3.3.3.9,1,.9,2.4,0,3.3-.9.8-2.3.7-3.3-.3-.9-1-.9-2.4,0-3.3Z"/>
          <path class="cls-7" d="M51.9,144.5s-1.3-1.4-1.5-1.6c-.2.2-1.9,1.8-1.9,1.8,0,0-1.7-1.8-1.8-2-.2.2-1.3,1.2-1.5,1.4.2.2,1.8,2,1.8,2,0,0-2.3,2.2-2.5,2.3.2.2,1.4,1.5,1.6,1.7.2-.2,5.7-5.3,5.9-5.5,0,0-.1-.1-.1-.1Z"/>
          <path class="cls-7" d="M45,136.9s-8.4.3-8.6.4c0,.2.1,2.1.2,2.3.2,0,6.2-.4,6.2-.4,0,0-.7,5.6-.8,5.8.2,0,2,.3,2.3.3,0-.3.9-8.1,1-8.4,0,0-.2,0-.2,0Z"/>
          <path class="cls-7" d="M113.5,172.3l2.3-.4-2.6-14.9c0,0-.2,0-.2,0,0,0-1.9.3-2.1.4,0,.3.8,4.6.8,4.6l-1.3.2s-.7-4.3-.8-4.6l-2.3.4,1.6,9.5c-1.8.3-7.2,1.2-7.2,1.2l-1.3-7.3s5.1-.9,5.3-.9l-.3-1.9s0,0,0,0l-7.5,1.3c.5,2.7,1.9,11,1.9,11.2l9.4-1.6.6,3.4,2.3-.4c0-.3-1.4-8.3-1.4-8.3l1.3-.2s1.4,8.1,1.4,8.3Z"/>
          <path class="cls-7" d="M67.4,160.8s-.3-.1-.7-.4l2.8-5.3c0,0-.1,0-.1,0,0,0-11.8-6.3-12.1-6.4l-1,1.8c.2.1,10.1,5.4,10.1,5.4,0,0-1.1,2.1-1.8,3.5l-11.1-5.9-1,1.8c.2.1,4.3,2.3,4.3,2.3,0,0-1.2,2.2-1.3,2.4l2.1,1.1c.1-.2,1.3-2.4,1.3-2.4l1.8,1s-1.2,2.2-1.3,2.4l2.1,1.1c.1-.2,1.3-2.4,1.3-2.4,0,0,3.4,1.8,3.6,1.9l1-1.8c0,0-.1,0-.1,0ZM54.9,158.1l-2-1.1-2.5,4.8,12.4,6.6,1-1.8c-.2-.1-10.4-5.5-10.4-5.5,0,0,1.5-2.7,1.6-2.9Z"/>
          <path class="cls-7" d="M77.2,167.3c0,0-.1,0-.1,0,0,0-1.9-.3-2.1-.3l-.8,5.3,14,2.2.3-2c-.3,0-11.7-1.8-11.7-1.8,0,0,.5-3.1.5-3.3ZM89.9,162.1s.4-2.4.4-2.6c0,0-.1,0-.1,0,0,0-1.9-.3-2.1-.3l-1,6.2-2.3-.4.9-5.9c0,0-.1,0-.1,0,0,0-9.3-1.5-9.6-1.5l-.3,2c.3,0,7.4,1.2,7.4,1.2,0,0-.4,2.7-.6,3.9-1.3-.2-2.3-.4-2.3-.4,0,0,.3-1.9.3-2.2,0,0-.1,0-.1,0,0,0-1.9-.3-2.2-.3,0,.2-.3,2.2-.3,2.2,0,0-3.3-.5-3.5-.6l-.3,2,12.8,2-.4,2.4,2.3.4c0-.3.9-6,.9-6,0,0,2.1.3,2.3.4l.3-2c-.2,0-2.3-.4-2.3-.4Z"/>
          <path class="cls-7" d="M131.3,148s-1.7.9-1.9,1c.1.2,4.2,7.6,4.3,7.8.2-.1,1.8-1,2-1.1-.1-.2-2.1-3.8-2.1-3.8,0,0,1.8-1,2-1.1-.1-.2-.9-1.6-1-1.8-.2.1-2,1.1-2,1.1,0,0-1.1-2.1-1.3-2.3,0,0-.1,0-.1,0Z"/>
          <path class="cls-7" d="M136.2,156.8s-12.2,6.8-12.5,6.9c.1.2.9,1.6,1,1.8.2-.1,10.6-5.9,10.6-5.9,0,0,1.4,2.5,1.5,2.7.2-.1,1.8-1,2-1.1-.1-.2-2.4-4.3-2.5-4.5,0,0-.1,0-.1,0Z"/>
          <path class="cls-7" d="M127.5,150.5l-3.7,2.1s0,0,0,0l-.7-1.2-2,1.1.7,1.2-3.8,2.1.9,1.7,1.4-.8c0,.8,0,1.6.5,2.4,1.2,2.1,4,2.8,6.2,1.6,2.2-1.2,3.1-4,1.9-6.1-.4-.7-1-1.3-1.7-1.7l1.3-.7-.9-1.7ZM126,158.7c-1.1.6-2.4.3-3-.8-.6-1-.2-2.3.9-2.9,1.1-.6,2.4-.3,3,.8.6,1,.2,2.3-.9,2.9Z"/>
        </g>
        <g>
          <path class="cls-7" d="M172.8,100.3l-1.7-1.1c1.8-.8,1.9-2.7,1.9-2.7,0-1.4-.8-2.5-2-2.5-1.6,0-2.2,1.4-2.9,3.1-.7,1.8-1.9,3.7-4.2,3.8-2.7.2-4.6-2.3-4.5-5.6.1-3.2,2.4-4.8,2.4-4.8l2.1.9s-2.9,1-3.1,4.5c0,1.6,1.1,2.8,2.6,2.7,1.6,0,2.2-1.4,2.9-3,.7-1.8,1.6-3.9,4.2-3.9,2.5,0,4.1,2,3.9,5.1,0,0,0,2-1.5,3.4Z"/>
          <path class="cls-7" d="M20.9,123.1l2,.2c-1.3,1.6-.5,3.2-.5,3.2.6,1.3,1.8,1.9,2.9,1.3,1.5-.7,1.4-2.3,1.2-4.1-.1-1.9,0-4.1,2.1-5.2,2.4-1.4,5.1,0,6.5,3.1,1.3,3,0,5.4,0,5.4h-2.3c0,0,2.2-2.1.8-5.3-.6-1.4-2.2-2-3.5-1.3-1.5.7-1.4,2.2-1.3,4,.1,2,.3,4.2-2.1,5.3-2.3,1.1-4.5,0-5.7-2.9,0,0-.8-1.8-.1-3.7Z"/>
          <path class="cls-7" d="M18.7,71.7h-.1c-.3.4-1.8,2-2.4,5.1-1,4.8,1.2,8.3,5.6,9.2,4.5.9,7.7-1.3,8.7-6,.4-1.8.5-3.7.2-5.6v-.2s-5.5-1.1-5.5-1.1l-.5,2.2,4.6.9c.3,1.1.2,2.2,0,2.9-.7,3.6-3.3,5.1-7.2,4.3-3.6-.8-5.5-3.1-4.8-6.4.3-1.7,1.4-3.3,2.8-4.1h0c0,0-1.6-1.4-1.6-1.4Z"/>
          <path class="cls-7" d="M32.4,43.4l-1.3,1.8,3.2,6.7-7.4-.7-1.6,2.3,9.7.6c.1,0,4.8,3.4,4.8,3.4l1.3-1.8s-4.9-3.4-5-3.5l-3.7-8.7Z"/>
          <path class="cls-7" d="M164.7,132.1l.9-2-4.5-6,7.4-.7,1.1-2.6-9.6,1.3c-.1,0-5.4-2.4-5.4-2.4l-.9,2.1s5.5,2.4,5.6,2.4l5.4,7.8Z"/>
          <path class="cls-7" d="M28,63.2l-3-8.8-1,2.1,2.8,8.2c-.4-.2-5.5-2.7-5.5-2.7l-1,2,12.7,6.2,1-2-6.2-3,8.7-2.1,1.3-2.6-9.8,2.7Z"/>
          <path class="cls-7" d="M70.4,25.1l4.2-8.3-2.2.7-3.9,7.8c-.1-.4-1.9-5.9-1.9-5.9l-2.2.7,4.4,13.5,2.2-.7-2.1-6.5,7.6,4.7,2.7-.9-8.7-5.1Z"/>
          <polygon class="cls-7" points="82.2 29.6 83.8 29.4 86.5 18.2 91.1 28.7 93 28.5 96.3 13.9 94.4 14.1 91.7 25.6 87 14.9 85.7 15 83.1 26.5 78.6 15.7 76.2 15.9 82.2 29.6"/>
          <path class="cls-7" d="M104.1,15h-1c0-.1-7.7,13.4-7.7,13.4l1.9.2,2.9-5.1,4.3.5,1.5,5.6,2.6.3-4.5-15ZM103,18.1c.2.8,1,4,1.1,4.6l-3.4-.4,2.3-4.2Z"/>
          <rect class="cls-7" x="147.3" y="52.4" width="14.1" height="2.3" transform="translate(-3.5 95.7) rotate(-34.1)"/>
          <rect class="cls-7" x="164.8" y="98.7" width="2.3" height="14.1" transform="translate(35.3 252.8) rotate(-80.9)"/>
          <path class="cls-7" d="M138.4,37.5c-2,2.9-4.1,3.4-6.3,1.8-2.5-1.7-2.6-3.4-.5-6.5l4.5-6.5-1.9-1.3-4.6,6.7c-1,1.4-1.9,3.1-1.5,4.8.4,1.5,1.3,2.7,3,3.9,3.1,2.1,6.1,1.6,8.2-1.6l4.8-6.9-1.3-.9-4.5,6.5Z"/>
          <path class="cls-7" d="M47,39.9c2.4,2.5,2.5,4.6.6,6.5-2.2,2.1-3.9,1.9-6.5-.8l-5.5-5.6-1.6,1.6,5.7,5.8c1.2,1.2,2.7,2.4,4.4,2.4,1.5,0,2.9-.8,4.4-2.2,2.7-2.7,2.8-5.6,0-8.4l-5.9-6-1.1,1.1,5.6,5.7Z"/>
          <path class="cls-7" d="M23.4,106.7c3.4-.8,5.3.2,5.9,2.9.7,3-.4,4.3-4,5.1l-7.7,1.8.5,2.2,7.9-1.9c1.7-.4,3.5-1,4.3-2.6.7-1.3.9-2.9.5-4.9-.9-3.7-3.5-5.3-7.2-4.4l-8.2,2,.4,1.6,7.7-1.8Z"/>
          <polygon class="cls-7" points="152.3 63.7 152.9 64.9 168.2 63.7 167.3 61.8 155.2 63 163.2 53.9 162 51.7 152.3 63.7"/>
          <path class="cls-7" d="M157.8,72.4c.4-.1,4.5-1.4,4.9-1.6l1.5,4.7,1.4-.4-1.5-4.7c.4-.1,4.1-1.3,4.5-1.4l1.6,5.1,1.2-.4-2.3-7.2-13.5,4.3,2.3,7.4,1.6-.5-1.7-5.2Z"/>
          <path class="cls-7" d="M172.5,110.6l-1.1-.3-1.2,4.2c-.5-.1-12.5-3.5-12.5-3.5l-.6,2.2,12.5,3.5-1.1,4.1,1.1.3,2.9-10.4Z"/>
          <path class="cls-7" d="M158.5,80.3l.3,2.2,6.8-.9-6,6.9.3,2.4,6-6.9c.4,2.3,2.3,4.1,4.3,3.9,2.3-.3,3.3-1.9,2.9-5l-.6-4.4-14,1.9ZM166.9,81.5c.4,0,4.3-.6,4.7-.6l.3,2.1c.2,1.8-.7,2.6-2,2.8-1.3.1-2.4-.4-2.7-2.4l-.3-1.9Z"/>
          <path class="cls-7" d="M56.9,23.6l-1.4.9,5.4,8.5c-5-1.3-13.6-3.3-13.6-3.3l-1,.6,7.6,11.9,1.4-.9s-3.2-5-5.7-8.9l14.1,3.6.8-.5-7.6-11.9Z"/>
          <path class="cls-7" d="M14.4,89.5v1.6s10.1-.2,10.1-.2c-3.7,3.6-9.9,10-9.9,10v1.1s14.2-.3,14.2-.3v-1.6s-5.9.1-10.6.2l10.4-10.2v-1s-14.2.3-14.2.3Z"/>
          <path class="cls-7" d="M125.4,20.6l-1.5-.5-3.2,9.5c-2.1-4.7-6.1-12.6-6.1-12.6l-1.1-.4-4.5,13.4,1.5.5s1.9-5.6,3.4-10l6.1,13.2.9.3,4.5-13.4Z"/>
          <path class="cls-7" d="M156.8,44.5l-1.1-1.2-7.4,6.9c.4-5.1.7-14,.7-14l-.8-.8-10.4,9.6,1.1,1.2s4.3-4,7.8-7.2l-1,14.5.7.7,10.4-9.6Z"/>
        </g>
        <g>
          <g>
            <path class="cls-8" d="M99.3,76.6c0-11.6,9.3-20.9,20.8-21,2.8,0,5.4.5,7.9,1.5-18.5-17-47.2-16.5-65.2,1.4-17.3,17.4-18.2,44.9-2.8,63.4,4-5.3,9.5-11.3,16.2-16.1,5.3-3.7,12.6-7.4,18.4-8,5.6-.5,13.8,0,18.8,2.4-3.9-4-8.1-8.5-10.1-11.2-2.6-3.5-4.2-7.8-4.2-12.6Z"/>
            <path class="cls-1" d="M97.8,91.9l-22.1-42.5c-4.1,2-7.9,4.6-11.4,7.8l33.4,34.6h.1Z"/>
            <path class="cls-5" d="M98,91.9l2.9-46.9c-3.8-.4-7.7-.3-11.5.3l8.6,46.6h0Z"/>
            <path class="cls-4" d="M97.7,91.8l-45.5-16.8c-1.5,4-2.5,8.2-2.9,12.5l48.5,4.5h-.1Z"/>
            <path class="cls-6" d="M49.6,98.6c.5,3.3,1.3,6.5,2.5,9.6l45.6-16.2-48,6.6Z"/>
            <path class="cls-2" d="M59.2,133.5c-1.4-1.2-3.7-3.4-5.8-6.1-9.6-10.8-20.6-39-2.4-64.7,7.5-10.6,18.3-17.7,29.1-20.6,25-6.8,44.3,5,53.1,14.6,1,1.1.8,2.4,0,3-1.1.9-2.1.4-4.3-.2-3.4-1-6.4-1.2-9.6-.8-7.4.9-13.7,7.8-12.8,17.3.8,8.7,7.5,15,12.3,19.1,16.6,14.6,11.1,30.2,9.7,33.6-4.6,11.7-16.3,19.9-31.5,19.9-6.3,0-15.4-1.6-24.6-7.4-.4-.2-.7-.6-.3-1.4.7-1.8,3.6-6.9,4.9-8.4,4.6,5.3,12.3,10.2,20.8,10.5,11.7.4,19.2-5.9,21.9-13.9,3.1-9-.2-18.2-9-26.5-7.5-7.1-14.3-13.7-14.7-25.1-.5-14.5,12.1-23.2,23.9-22.6.4,0-16.3-11.9-37.5-4.8-10.4,3.5-16.6,9.7-19.6,13.2-.4.5-.2,1,0,1.2.3.5,7.6,10.6,7.6,10.6l-13.1-3s-.5-.1-.8.3c-4.1,7.2-10.2,27.9,3.5,46.7,0,0,11.6-18.4,34.7-20,1.5-.1,1.3.4.3.8-20.6,7.6-28.7,22.8-34,34.4-.3.7-1.2.9-1.9.3Z"/>
          </g>
          <g>
            <path class="cls-7" d="M80.5,119.2s1.3-.6,1.7-.8v8.9s1.6,0,1.6,0v-10.5s-.3-.2-.3-.2h0c-1.2.6-2.4,1.2-3.4,1.6l.5.9Z"/>
            <path class="cls-7" d="M89.1,122.1c1.3,0,1.9.7,2,2.1,0,1.4-.9,2.3-2.2,2.3-1,0-1.7-.7-1.9-.9l-.2-.2-.4,1.4h.1c.6.3,1.3.6,2.3.6,2.3,0,4-1.4,4-3.3,0-1.8-1.4-2.3-2.2-2.4.9-.4,1.7-1.2,1.7-2.5,0-1.5-1.2-2.4-3-2.4-1.6,0-2.4,1-2.4,1l.7,1.2v-.3c.3-.5.9-1.1,1.6-1.1.7,0,1.4.4,1.4,1.7,0,1-.3,2.1-1.5,2.1h-.8c0,0,0,.9,0,.9,0,0,.5-.1.8-.1Z"/>
            <path class="cls-7" d="M95,125.3l.4,1.7s.7.4,1.6.4c2.7,0,4.6-2.5,4.6-6.2,0-4-2.5-4.5-3.5-4.5-2.1,0-3.5,1.4-3.5,3.4,0,1.9,1.2,3.1,3.1,3.1,1,0,1.7-.4,2.3-1.1-.1,2.3-1,4.3-2.8,4.3-1.5,0-2.1-1.2-2.1-1.2ZM97.9,122.3c-1.1,0-1.7-.7-1.7-2.3,0-1.5.7-2.6,1.8-2.6,1.1,0,1.8.9,1.8,2.2,0,1.3-.7,2.7-2,2.7Z"/>
            <path class="cls-7" d="M108,121.3c.9-.4,1.5-1.2,1.5-2.2,0-1.1-.8-2.4-3-2.4-1.7,0-3,1.1-3,2.5,0,1.1.7,1.8,1.5,2.1-1.3.5-2,1.5-2,2.9,0,1.8,1.4,3.1,3.5,3.1,2,0,3.5-1.5,3.5-3.4,0-1.8-1.4-2.4-2-2.6ZM105.1,119.3c0-.4.1-1.8,1.4-1.8,1.3,0,1.5,1.2,1.5,1.8,0,.4-.1,1.8-1.5,1.8-1.3,0-1.4-1.3-1.4-1.8ZM106.5,126.5c-1.1,0-1.9-.9-1.9-2.4,0-1.4.7-2.4,1.9-2.4,1.1,0,1.9.9,1.9,2.3,0,1.4-.7,2.4-1.9,2.4Z"/>
          </g>
        </g>
      </g>
    </g>
  </g>
</svg>